<?xml version="1.0" encoding="utf-8"?>
<!-- Generator: Adobe Illustrator 16.0.0, SVG Export Plug-In . SVG Version: 6.00 Build 0)  -->
<!DOCTYPE svg PUBLIC "-//W3C//DTD SVG 1.1//EN" "http://www.w3.org/Graphics/SVG/1.1/DTD/svg11.dtd">
<svg version="1.1" id="Layer_1" xmlns="http://www.w3.org/2000/svg" xmlns:xlink="http://www.w3.org/1999/xlink" x="0px" y="0px"
	 width="64px" height="64px" viewBox="0 0 64 64" enable-background="new 0 0 64 64" xml:space="preserve">
<path fill-rule="evenodd" clip-rule="evenodd" d="M21.986,40.006c1.102,0,1.993,0.893,1.993,1.993s-0.892,1.992-1.993,1.992
	c-1.1,0-1.992-0.892-1.992-1.992S20.887,40.006,21.986,40.006L21.986,40.006z M16.145,34.299
	c-1.261-8.749,4.81-16.862,13.559-18.123s16.863,4.81,18.124,13.559s-4.81,16.863-13.559,18.124
	c-0.098,0.015-0.192,0.015-0.289,0.026l0.296-0.041c-1.094,0.157-2.106-0.602-2.265-1.695c-0.157-1.093,0.602-2.108,1.695-2.267
	l-0.003-0.007c0.003,0,0.005,0,0.008,0c6.56-0.945,11.109-7.028,10.164-13.588c-0.945-6.561-7.027-11.11-13.588-10.165
	c-6.557,0.945-11.11,7.028-10.164,13.588c0,0.003,0,0.005,0.002,0.005l-0.007,0.003l0,0c0.157,1.093-0.602,2.106-1.695,2.264
	c-1.093,0.157-2.108-0.601-2.267-1.694l0.044,0.298C16.186,34.488,16.159,34.396,16.145,34.299L16.145,34.299z M47.989,13.005
	c0-1.658,1.346-3.004,3.006-3.004c1.642,0,2.973,1.318,2.999,2.958v0.094c-0.026,1.64-1.357,2.958-2.999,2.958
	C49.335,16.011,47.989,14.665,47.989,13.005L47.989,13.005z M58.661,58.52C55.183,62.034,50.357,64,42.012,64H21.986
	c-8.345,0-13.17-1.966-16.646-5.48C1.908,55.054,0,50.216,0,42.014V21.988c0-8.205,1.908-13.04,5.34-16.506
	C8.816,1.967,13.641,0,21.986,0h20.025c8.346,0,13.171,1.967,16.649,5.482c0.223,0.223,0.427,0.468,0.633,0.71
	c0.422,0.366,0.695,0.902,0.695,1.505c0,1.105-0.895,2-2,2c-0.604,0-1.14-0.274-1.506-0.698l-0.026,0.021
	c-0.206-0.245-0.399-0.499-0.627-0.728c-3.042-3.076-7.533-4.283-14.837-4.283H22.997c-7.302,0-11.784,1.207-14.826,4.283
	c-3.003,3.033-4.171,7.536-4.171,14.713v17.997c0,7.18,1.168,11.671,4.171,14.703c3.042,3.075,7.524,4.295,14.826,4.295h17.997
	c7.304,0,11.795-1.22,14.837-4.295c3.003-3.032,4.159-7.523,4.159-14.703V23.006c0-1.748-0.072-3.333-0.218-4.78l0.009-0.002
	c-0.108-1.103,0.691-2.089,1.796-2.206c1.107-0.114,2.1,0.69,2.213,1.795c0.003,0.029,0,0.056,0,0.085h0.005
	C63.916,19.172,64,20.507,64,21.988v20.025C64,50.216,62.09,55.054,58.661,58.52L58.661,58.52z"/>
</svg>
