<?xml version="1.0" encoding="utf-8"?>
<!-- Generator: Adobe Illustrator 16.0.0, SVG Export Plug-In . SVG Version: 6.00 Build 0)  -->
<!DOCTYPE svg PUBLIC "-//W3C//DTD SVG 1.1//EN" "http://www.w3.org/Graphics/SVG/1.1/DTD/svg11.dtd">
<svg version="1.1" id="Layer_1" xmlns="http://www.w3.org/2000/svg" xmlns:xlink="http://www.w3.org/1999/xlink" x="0px" y="0px"
	 width="64px" height="64px" viewBox="0 0 64 64" enable-background="new 0 0 64 64" xml:space="preserve">
<path fill-rule="evenodd" clip-rule="evenodd" d="M20,34c0,1.105-0.895,2-2,2s-2-0.895-2-2s0.895-2,2-2
	S20,32.895,20,34L20,34z M32,64c-4.458,0-8.696-0.931-12.55-2.579C17.413,60.461,16,58.4,16,56V45.047C16,42.26,18.259,40,21.047,40
	c1.212,0,2.322,0.432,3.195,1.146C26.334,42.924,29.04,44,32,44c6.628,0,12-5.372,12-12s-5.372-12-12-12
	c-4.797,0-8.924,2.822-10.846,6.89l-0.021-0.012C20.807,27.539,20.131,28,19.343,28c-1.103,0-2-0.895-2-2
	c0-0.432,0.141-0.829,0.374-1.154C20.344,19.607,25.741,16,32,16c8.836,0,16,7.164,16,16s-7.164,16-16,16
	c-3.922,0-7.486-1.442-10.262-3.794c0.002,0.024-0.002,0.034-0.02,0.021C21.54,44.085,21.309,44,21.062,44
	C20.475,44,20,44.476,20,45.062V56c0,0.749,0.424,1.384,1.033,1.727C24.402,59.176,28.1,60,32,60c15.465,0,28-12.536,28-28
	S47.465,4,32,4C16.536,4,4,16.536,4,32v30c0,1.105-0.895,2-2,2s-2-0.895-2-2V32C0,14.327,14.327,0,32,0s32,14.327,32,32
	S49.673,64,32,64L32,64z"/>
</svg>
