<?xml version="1.0" encoding="utf-8"?>
<!-- Generator: Adobe Illustrator 16.0.0, SVG Export Plug-In . SVG Version: 6.00 Build 0)  -->
<!DOCTYPE svg PUBLIC "-//W3C//DTD SVG 1.1//EN" "http://www.w3.org/Graphics/SVG/1.1/DTD/svg11.dtd">
<svg version="1.1" id="Layer_5" xmlns="http://www.w3.org/2000/svg" xmlns:xlink="http://www.w3.org/1999/xlink" x="0px" y="0px"
	 width="512px" height="512px" viewBox="0 0 512 512" enable-background="new 0 0 512 512" xml:space="preserve">
<path fill-rule="evenodd" clip-rule="evenodd" d="M512,448.014C512,483.351,483.344,512,448,512h-32.001
	c-35.359,0-64.008-28.649-64.008-63.986c0-7.859-0.414-15.609-1.023-23.306c-0.109-1.289-0.156-2.586-0.281-3.859
	c-0.688-7.297-1.672-14.531-2.891-21.673c-0.234-1.398-0.5-2.758-0.75-4.141c-1.352-7.195-2.906-14.312-4.781-21.328
	c-0.266-1.023-0.57-1.992-0.859-3c-2.008-7.228-4.219-14.368-6.766-21.368c-0.031-0.102-0.086-0.227-0.125-0.336
	c-2.562-7.031-5.484-13.907-8.594-20.673c-0.438-0.984-0.844-1.969-1.305-2.938c-3.056-6.461-6.353-12.758-9.853-18.945
	c-0.609-1.094-1.234-2.172-1.859-3.267c-3.594-6.148-7.391-12.18-11.414-18.031c-0.555-0.805-1.133-1.609-1.68-2.398
	c-4.188-5.961-8.547-11.79-13.156-17.407c-0.125-0.156-0.281-0.336-0.406-0.5c-4.633-5.594-9.5-10.961-14.516-16.195
	c-0.828-0.883-1.641-1.758-2.5-2.625c-4.891-4.984-10.004-9.773-15.262-14.383c-0.949-0.844-1.918-1.688-2.871-2.492
	c-5.383-4.594-10.871-9.023-16.574-13.203c-0.809-0.594-1.652-1.149-2.461-1.743c-5.938-4.273-11.981-8.383-18.262-12.203
	c-0.105-0.055-0.195-0.125-0.305-0.195c-6.188-3.766-12.594-7.227-19.066-10.547c-1.168-0.594-2.297-1.203-3.465-1.773
	c-6.223-3.07-12.574-5.868-19.051-8.493c-1.363-0.555-2.727-1.109-4.109-1.633c-6.582-2.547-13.258-4.875-20.075-6.938
	c-1.059-0.32-2.152-0.609-3.211-0.914c-25.562-7.43-52.563-11.5-80.532-11.5c-17.668,0-32,14.313-32,31.985v32.009
	c0,17.665,14.333,32.001,32,32.001c17.566,0,34.516,2.562,50.68,6.977c4.953,1.367,9.812,2.906,14.602,4.648
	c0.289,0.086,0.539,0.219,0.809,0.305c23.699,8.704,45.172,21.938,63.434,38.643c0.789,0.734,1.617,1.422,2.387,2.172
	c2.871,2.711,5.633,5.523,8.324,8.414c1.184,1.273,2.367,2.547,3.516,3.859c2.402,2.688,4.699,5.414,6.941,8.25
	c1.328,1.688,2.602,3.445,3.875,5.188c2.012,2.743,4.055,5.454,5.922,8.282c1.363,2.086,2.566,4.234,3.855,6.352
	c2.512,4.164,4.879,8.398,7.07,12.758c1.613,3.195,3.227,6.384,4.664,9.688c1.004,2.273,1.848,4.625,2.762,6.961
	c1.203,3.102,2.387,6.203,3.426,9.383c0.789,2.367,1.488,4.75,2.172,7.141c0.969,3.391,1.848,6.829,2.637,10.274
	c0.52,2.266,1.039,4.523,1.469,6.836c0.738,3.844,1.277,7.75,1.777,11.641c0.254,2.07,0.574,4.094,0.773,6.172
	c0.355,3.774,0.43,7.61,0.574,11.431c0.23,2.188,0.34,4.398,0.34,6.641c0,35.337-28.648,63.986-64.008,63.986h-24.004h-8
	c-35.34,0-63.992-28.649-63.992-63.986c0-17.673-14.333-32.009-32.004-32.009c-17.668,0-32,14.336-32,32.009
	c0,17.665,14.333,31.985,32,31.985c8.848,0,16.004,7.172,16.004,16.001c0,8.844-7.156,16-16.004,16C28.648,512,0,483.351,0,448.014
	c0-35.36,28.648-64.01,63.989-64.01c35.344,0,64.012,28.649,64.012,64.01c0,17.665,14.312,31.985,31.984,31.985h8h24.004
	c17.668,0,32.004-14.32,32.004-31.985c0-24.243-5.543-47.134-15.196-67.729c-0.824-1.758-1.633-3.531-2.531-5.273
	c-1.184-2.312-2.457-4.594-3.746-6.852c-0.969-1.704-2.012-3.376-3.051-5.024c-1.309-2.094-2.637-4.211-4.035-6.242
	c-2.152-3.102-4.434-6.117-6.781-9.062c-1.402-1.719-2.871-3.367-4.324-5.039c-1.723-1.969-3.48-3.945-5.293-5.828
	c-1.488-1.524-2.977-3.017-4.52-4.485c-1.957-1.883-4-3.68-6.047-5.469c-1.309-1.133-2.602-2.297-3.945-3.391
	c-3.41-2.75-6.907-5.422-10.532-7.898c-1.059-0.719-2.172-1.328-3.246-2.023c-2.816-1.812-5.688-3.609-8.629-5.258
	c-1.508-0.844-3.031-1.633-4.559-2.422c-2.781-1.453-5.633-2.798-8.504-4.095c-1.414-0.625-2.797-1.289-4.23-1.883
	c-4.254-1.734-8.578-3.352-13.008-4.75c-0.539-0.164-1.094-0.289-1.648-0.453c-3.984-1.195-8.059-2.258-12.164-3.133
	c-1.527-0.328-3.106-0.609-4.665-0.898c-3.336-0.633-6.727-1.133-10.137-1.547c-1.473-0.18-2.906-0.359-4.395-0.5
	c-4.898-0.445-9.812-0.75-14.82-0.75C28.648,288.009,0,259.352,0,223.999V191.99c0-35.345,28.648-63.994,63.989-63.994
	c5.203,0,10.352,0.148,15.5,0.398c1.867,0.086,3.734,0.266,5.617,0.375c3.426,0.234,6.852,0.445,10.242,0.773
	c1.778,0.18,3.516,0.391,5.274,0.609c3.391,0.391,6.781,0.789,10.137,1.289c2.008,0.289,4,0.633,5.992,0.969
	c2.852,0.469,5.668,0.969,8.504,1.508c2.277,0.453,4.52,0.914,6.762,1.398c2.941,0.633,5.867,1.313,8.754,2.032
	c1.938,0.484,3.859,0.969,5.797,1.469c2.852,0.773,5.688,1.594,8.52,2.422c2.047,0.609,4.125,1.203,6.172,1.852
	c2.617,0.82,5.168,1.719,7.77,2.633c2.242,0.773,4.5,1.523,6.707,2.367c2.207,0.828,4.414,1.742,6.602,2.602
	c2.387,0.953,4.809,1.868,7.176,2.891c2.047,0.875,4.02,1.812,6.047,2.727c5.078,2.297,10.082,4.719,15.031,7.266
	c1.543,0.789,3.105,1.562,4.629,2.383c2.602,1.398,5.148,2.875,7.695,4.344c1.653,0.93,3.34,1.844,4.973,2.836
	c2.637,1.578,5.234,3.242,7.836,4.898c1.418,0.914,2.855,1.789,4.27,2.727c2.531,1.664,5.023,3.391,7.48,5.125
	c1.582,1.117,3.176,2.242,4.754,3.391c2.262,1.656,4.504,3.336,6.711,5.023c1.559,1.188,3.09,2.406,4.605,3.625
	c2.359,1.898,4.703,3.805,7.016,5.758c1.219,1.039,2.422,2.086,3.625,3.141c2.484,2.172,4.969,4.344,7.391,6.602
	c0.812,0.734,1.562,1.492,2.352,2.242c22.625,21.438,42.165,46.142,57.767,73.377c0.195,0.32,0.383,0.664,0.57,1
	c2.086,3.664,4.094,7.375,6.031,11.125c0.25,0.484,0.484,0.953,0.734,1.438c1.953,3.821,3.844,7.657,5.641,11.571
	c0.078,0.195,0.172,0.391,0.266,0.594c1.883,4.102,3.695,8.234,5.398,12.43c0,0.016,0,0.031,0.016,0.07
	c8.805,21.618,15.32,44.416,19.25,68.104c2.836,17.126,4.398,34.688,4.398,52.635c0,17.665,14.328,31.985,32,31.985H448
	c17.672,0,31.992-14.32,31.992-31.985c0-25.907-2.477-51.221-7.016-75.814c-0.055-0.273-0.086-0.539-0.148-0.828
	c-1.125-6.009-2.383-11.985-3.766-17.899c-0.047-0.234-0.086-0.453-0.141-0.664c-1.344-5.688-2.797-11.344-4.359-16.938
	c-0.203-0.734-0.406-1.469-0.625-2.211c-1.594-5.578-3.281-11.062-5.094-16.555c-0.039-0.109-0.078-0.25-0.109-0.375
	c-13.688-41.188-33.626-79.495-58.72-113.847c-0.07-0.125-0.141-0.234-0.234-0.344c-3.141-4.29-6.383-8.485-9.688-12.649
	c-0.656-0.82-1.289-1.68-1.953-2.508c-3.062-3.821-6.242-7.571-9.453-11.282c-0.922-1.062-1.844-2.117-2.766-3.18
	c-3.203-3.641-6.531-7.227-9.859-10.766c-0.922-0.969-1.852-1.953-2.781-2.922c-3.25-3.375-6.57-6.688-9.922-9.938
	c-1.258-1.203-2.5-2.406-3.766-3.609c-3.305-3.117-6.672-6.203-10.086-9.234c-1.242-1.11-2.508-2.188-3.773-3.282
	c-3.383-2.945-6.812-5.852-10.312-8.664c-1.609-1.297-3.227-2.547-4.86-3.828c-3.281-2.563-6.578-5.165-9.953-7.641
	c-1.672-1.219-3.375-2.398-5.078-3.625c-3.5-2.492-7-5-10.562-7.391c-0.781-0.516-1.547-1-2.32-1.508
	c-9.039-5.953-18.297-11.57-27.805-16.821c-0.5-0.289-1-0.594-1.508-0.867c-2.836-1.539-5.738-2.992-8.609-4.484
	c-2.961-1.539-5.902-3.086-8.898-4.539c-2.816-1.375-5.707-2.672-8.559-3.977c-2.906-1.328-5.773-2.656-8.719-3.93
	c-3.102-1.344-6.223-2.586-9.364-3.859c-2.977-1.203-5.918-2.383-8.934-3.516c-2.871-1.078-5.777-2.102-8.664-3.102
	c-3.391-1.188-6.801-2.352-10.227-3.461c-2.742-0.883-5.523-1.742-8.305-2.57c-3.445-1.039-6.906-2.008-10.387-2.938
	c-2.996-0.812-5.992-1.602-9.008-2.336c-3.352-0.82-6.727-1.578-10.118-2.328c-3.086-0.688-6.152-1.352-9.273-1.961
	c-3.535-0.68-7.121-1.328-10.691-1.914c-2.906-0.508-5.797-1.008-8.738-1.438c-4.234-0.609-8.52-1.109-12.789-1.617
	c-2.332-0.266-4.613-0.57-6.945-0.805c-4.805-0.469-9.668-0.805-14.512-1.109c-2.008-0.133-3.98-0.328-6.008-0.414
	c-1.578-0.07-3.176-0.07-4.773-0.125v-0.18c-4.035-0.039-8.055-1.578-11.141-4.664c-6.242-6.243-6.242-16.383,0-22.626
	c3.41-3.406,7.965-4.773,12.414-4.469C320.561,9.454,512,206.327,512,448.014L512,448.014z M15.984,32.001
	C7.156,32.001,0,24.829,0,16C0,7.156,7.156,0,15.984,0c8.844,0,16.004,7.156,16.004,16C31.988,24.829,24.828,32.001,15.984,32.001
	L15.984,32.001z"/>
</svg>
