<?xml version="1.0" encoding="utf-8"?>
<!-- Generator: Adobe Illustrator 16.0.0, SVG Export Plug-In . SVG Version: 6.00 Build 0)  -->
<!DOCTYPE svg PUBLIC "-//W3C//DTD SVG 1.1//EN" "http://www.w3.org/Graphics/SVG/1.1/DTD/svg11.dtd">
<svg version="1.1" id="Layer_12" xmlns="http://www.w3.org/2000/svg" xmlns:xlink="http://www.w3.org/1999/xlink" x="0px" y="0px"
	 width="512px" height="512px" viewBox="0 0 512 512" enable-background="new 0 0 512 512" xml:space="preserve">
<path fill-rule="evenodd" clip-rule="evenodd" d="M500.555,246.359l-0.211-0.156
	c-2.906,3.957-7.562,6.555-12.836,6.555c-8.844,0-16-7.156-16-16c0-3.336,1.023-6.438,2.773-8.996l-0.172-0.117
	c3.664-6.051,5.891-13.051,5.891-20.637c0-17.066-10.727-31.555-25.773-37.293C380.062,132.926,296.555,112,208,112
	c-49.375,0-97.164,6.609-142.703,18.695c-1.547,0.27-3,0.695-4.5,1.141l-8.469-30.699C101.898,87.465,154.062,80,208,80
	c96.062,0,186.625,23.328,266.57,64.445l0.039-0.078C496.891,156.605,512,180.285,512,207.512
	C512,221.824,507.773,235.148,500.555,246.359L500.555,246.359z M32,170.141c0,22.148,17.961,40.125,40.125,40.125
	c3.438,0,6.734-0.562,9.914-1.375l0.055,0.211c40.086-11.07,82.289-17.105,125.906-17.105c84.109,0,163.008,22.09,231.406,60.668
	l0.062-0.098c19.43,11.324,32.539,32.332,32.539,56.434c0,36.094-29.266,65.336-65.336,65.336c-11.93,0-23.062-3.234-32.695-8.82
	l-0.039,0.055c-50-28.93-108.008-45.555-169.93-45.555c-43.812,0-85.664,8.383-124.141,23.508C70.633,346.859,64,355.625,64,366
	c0,13.266,10.742,24.008,24.008,24.008c3.18,0,6.227-0.656,9-1.781l11.789,29.805c-6.359,2.484-13.227,3.977-20.461,3.977
	C57.211,422.008,32,396.781,32,365.672c0-23.703,14.68-43.906,35.414-52.211l11.484,29.031l-11.508-29.086
	c42.398-16.352,88.438-25.414,136.617-25.414c67.297,0,130.438,17.656,185.266,48.336c5.164,3.375,11.289,5.352,17.898,5.352
	c18.141,0,32.836-14.703,32.836-32.828c0-12.242-6.766-22.797-16.695-28.438l0.039-0.078C359.68,244.516,286.258,224,208,224
	c-40.672,0-80,5.621-117.391,15.961l0.016,0.055c-5.914,1.574-12.102,2.484-18.5,2.484C32.289,242.5,0,210.211,0,170.375
	c0-32.953,22.125-60.684,52.305-69.297l8.477,30.758C44.195,136.766,32,151.949,32,170.141L32,170.141z M32,264.008
	c8.844,0,16,7.156,16,16s-7.156,16-16,16s-16-7.156-16-16S23.156,264.008,32,264.008L32,264.008z M204.008,368.016
	c53.156,0,102.922,14.336,145.836,39.141c5.938,2.328,10.164,8.086,10.164,14.852c0,8.844-7.172,16-16,16
	c-2.93,0-5.602-0.828-7.969-2.211l-0.117,0.195c-38.672-22.828-83.766-35.977-131.914-35.977c-33.609,0-65.688,6.438-95.188,18.055
	l-11.773-29.75C130.172,375.273,166.227,368.016,204.008,368.016L204.008,368.016z M400,416.016c8.844,0,16,7.156,16,16
	c0,8.828-7.156,16-16,16s-16-7.172-16-16C384,423.172,391.156,416.016,400,416.016L400,416.016z"/>
</svg>
