<?xml version="1.0" encoding="utf-8"?>
<!-- Generator: Adobe Illustrator 16.0.0, SVG Export Plug-In . SVG Version: 6.00 Build 0)  -->
<!DOCTYPE svg PUBLIC "-//W3C//DTD SVG 1.1//EN" "http://www.w3.org/Graphics/SVG/1.1/DTD/svg11.dtd">
<svg version="1.1" id="Layer_5" xmlns="http://www.w3.org/2000/svg" xmlns:xlink="http://www.w3.org/1999/xlink" x="0px" y="0px"
	 width="512px" height="512px" viewBox="0 0 512 512" enable-background="new 0 0 512 512" xml:space="preserve">
<path fill-rule="evenodd" clip-rule="evenodd" d="M352,376.012c0-8.852,7.156-16.008,16-16.008s16,7.156,16,16.008
	c0,8.82-7.156,16-16,16S352,384.832,352,376.012L352,376.012z M372.773,492.676C349.414,501.605,311.977,512,264.008,512
	c-75.117,0-136-60.879-136-135.988c0-1.812,0.07-3.5,0.141-5.188c-0.031-0.93-0.141-1.867-0.141-2.82v-113.75
	c0-6.332-3.789-11.66-9.148-14.242H104c-22.102,0-40-17.922-40-40.004V152c0-19.57,14.047-35.805,32.648-39.27
	c35.164-7.426,61.797-37.957,63.289-74.969c0-0.07,0.109-0.016,0.266,0.125C161.336,16.773,178.633,0,200,0h48
	c22.086,0,40.008,17.902,40.008,40.004v56.008c0,8.828,7.156,15.984,15.984,15.984H344c22.094,0,40,17.922,40,40.004v48.008
	c0,22.082-17.906,40.004-40,40.004h-40.008c-8.828,0-15.984,7.156-15.984,15.984v16v64.008v8c0,13.258,10.742,24,23.984,24
	c8.844,0,16,7.164,16,16.008c0,8.82-7.156,15.984-16,15.984c-39.859,0-56.039-29.992-56.039-56.312c0-9.438,0-41.531,0-94.848
	c0-0.305,0.047-0.5,0.047-0.824c0-22.101,17.906-40.003,40.008-40.003c0.555,0,0.953-0.09,1.453-0.125l38.891,0.09
	c8.664-0.215,15.648-7.25,15.648-15.969v-32c0-8.828-7.164-16.004-16.008-16.004h-39.984C273.906,144,256,126.098,256,104.012
	c0-24.305,0-43.539,0-56.004c0-8.848-7.156-16.004-16-16.004c-8.57,0-20.055,0-33.008,0c-7.805,0-14.312,5.598-15.711,13.008
	c0,0.035-0.078,0-0.109,0c-6.547,64.383-60.438,88.441-84.047,95.973c-0.016,0-0.016,0.039-0.039,0.039
	C100.648,143.102,96,149.129,96,156.254v35.75c0,8.848,7.156,16.004,16,16.004h16.008c14.742,0,31.984,17.902,31.984,40.003
	c0,31.446,0,75.813,0,111.993c0,63.383,32.828,120,104.016,120c51.586,0,82.914-12.578,96.312-19.516
	c4.555-2.812,7.68-7.734,7.68-13.492c0-0.109,0.016-0.164,0.016-0.273l0.039-14.203c0-0.18-0.055-0.344-0.055-0.516
	c0-8.828,7.156-16.008,16-16.008s16,7.18,16,16.008v20C400,470.348,388.734,486.105,372.773,492.676L372.773,492.676z"/>
</svg>
