<?xml version="1.0" encoding="utf-8"?>
<!-- Generator: Adobe Illustrator 16.0.0, SVG Export Plug-In . SVG Version: 6.00 Build 0)  -->
<!DOCTYPE svg PUBLIC "-//W3C//DTD SVG 1.1//EN" "http://www.w3.org/Graphics/SVG/1.1/DTD/svg11.dtd">
<svg version="1.1" id="Layer_5" xmlns="http://www.w3.org/2000/svg" xmlns:xlink="http://www.w3.org/1999/xlink" x="0px" y="0px"
	 width="512px" height="512px" viewBox="0 0 512 512" enable-background="new 0 0 512 512" xml:space="preserve">
<path fill-rule="evenodd" clip-rule="evenodd" d="M512,107.867c0,7.031-2.203,13.527-5.977,18.836
	c-10.062,15.051-23.727,25.977-37.367,37.422c-2.797,2.707-4.57,6.387-4.805,10.531c-1.523,69.156-27.141,148.246-72.78,200.512
	c-54.586,62.49-129,104.881-215.078,104.881c-8.824,0-16-7.172-16-16c0-8.844,7.176-16,16-16
	c158.555,0,244.944-138.6,255.007-256.924c0.469-1.652,0.758-3.785,0.758-6.816c0-1.008,0.016-2.012,0.07-2.996
	c0.789-13.796,6.961-26.156,16.43-35.019c0.469-0.449,0.828-0.859,1.172-1.273c11.555-11.375,22.211-24.668,30.461-37.152
	c-11.719,5.258-24.078,9.238-36.922,11.93c-2.148,0-3.961-1.812-3.961-4c0-1.094,0.445-2.098,1.164-2.816
	c0.031-0.035-0.109,0.016-0.125,0.016c12.609-11.012,22.281-25.402,27.484-41.816c-8.469,5.059-17.406,9.418-26.68,13.098
	c-5.992,2.387-12.5,3.766-19.359,3.766c-10.672,0-20.593-3.211-28.843-8.719c-0.32-0.215-0.648-0.359-0.969-0.555
	c-13.672-9.184-29.617-14.711-47.68-14.711l-1.883,0.34c-39.742,0-69.945,22.406-81.234,56.707
	c-0.317,0.147-3.551,14.406-3.875,16.453c-2.996,19.121-19.535,33.742-39.504,33.742c-2.168,0-4.305-0.18-6.387-0.539
	c-52.472-9.812-99.847-32.504-135.207-69.406c-0.215-0.18-0.379-0.234-0.684-0.539c-4.68-4.684-12.27-4.684-16.969,0
	c-1.094,1.113-1.938,2.367-2.531,3.73c-0.141,0.344-0.23,0.344-0.34,0.414c-4.27,9.867-7.391,20.539-7.391,31.09
	c0,21.832,8.879,41.761,22.227,57.601c0,0.02-0.16-0.07-0.09,0c1.168,1.398,1.867,3.195,1.867,5.148c0,4.414-3.59,8-8.004,8
	c-0.879,0-1.703-0.23-2.492-0.5c-0.125-0.055-0.25-0.109-0.375-0.16c-0.145,0.051-0.305,0.125-0.559,0
	c-1.074-0.539-2.277-0.844-3.566-0.844c-4.344,0-7.859,3.516-7.969,7.82c4.164,28.469,21.637,53.676,45.227,68.458
	c-0.305-0.031-0.484-0.031-0.375,0.031c2.168,1.422,3.621,3.898,3.621,6.695c0,4.414-3.586,8-8,8c-0.09,0-0.18-0.016-0.27-0.016
	c-0.105-0.023-0.195-0.055-0.305-0.07c-0.285-0.039-0.555-0.094-0.844-0.125c-2.152,0.109-3.84,1.812-3.84,3.961
	c0,0.633,0.129,1.219,0.395,1.742c6.512,16.219,17.527,30.078,31.395,40.219c0.164,0.125,0.199,0.234,0.395,0.375
	c1.184,0.844,2.297,1.812,3.375,2.875c10.922,10.922,10.922,28.648,0,39.594c-3.355,3.328-7.34,5.664-11.555,6.953
	c-0.035,0.016-0.016,0-0.055,0.016c-16.395,5.203-33.762,8.219-52.203,8.219c-3.086,0-6.527,0-9.992,0c-2.207,0-4,1.797-4,4
	c0,1.297,0.645,2.375,1.578,3.094c6.586,3.906,13.332,7.727,20.344,11.281l-0.016,0.016c4.715,2.639,7.965,7.623,7.965,13.436
	c0,8.523-6.906,15.43-15.43,15.43c-3.48,0-6.672-1.203-9.258-3.141c-11.211-5.867-22.082-12.148-32.414-18.836
	C2.182,417.184-3.166,401.34,1.893,387.129c4.594-12.992,16.703-19.086,30.105-19.086c5.953,0.719,17.902,0,24,0
	c12.289,0,22.355-2.531,33.996-5.344c-17.473-14.82-30.965-34.555-38.266-57.57c-1.812-5.727-1.992-11.734-0.645-17.398
	c-20.648-22.531-35.089-55.293-35.089-87.672c0.16-8.02,5.273-14.711,10.496-20.434c-5.059-13.761-10.496-28.433-10.496-43.574
	c0-22.137,8.558-43.969,19.554-63.004c5.309-9.184,17.957-16.164,28.449-16.988c9.598,0,18.031,5.273,24.148,12.844
	c30.176,37.352,77.406,57.426,123.871,68.906c0.789,0.141,1.633,0.25,2.477,0.25c7.625,0,13.938-5.293,15.59-12.434
	C242.817,71.844,284.563,32,342.118,32c24.344,0,48.078,7.34,68.147,20.633c3.125,1.973,6.766,3.176,10.727,3.176
	c1.758,0,3.445-0.289,5.039-0.719c8.672-3.23,17.117-6.98,25.117-11.785c5.078-3.035,10.727-3.266,16.359-3.266
	c7.109,0,14.195,1.129,20.008,5.793c10.422,8.379,14.633,22.391,10.562,35.199c0,0.035-0.016,0.07-0.016,0.105
	C506.477,86.984,512,96.781,512,107.867L512,107.867z M31.998,368.043C30.74,367.902,33.251,368.043,31.998,368.043L31.998,368.043z
	 M63.998,56.059C63.173,56.059,64.826,55.984,63.998,56.059L63.998,56.059z M120.005,440.049c8.828,0,16.004,7.156,16.004,16
	c0,8.828-7.176,16-16.004,16c-8.844,0-16-7.172-16-16C104.005,447.205,111.162,440.049,120.005,440.049L120.005,440.049z"/>
</svg>
