<?xml version="1.0" encoding="utf-8"?>
<!-- Generator: Adobe Illustrator 16.0.0, SVG Export Plug-In . SVG Version: 6.00 Build 0)  -->
<!DOCTYPE svg PUBLIC "-//W3C//DTD SVG 1.1//EN" "http://www.w3.org/Graphics/SVG/1.1/DTD/svg11.dtd">
<svg version="1.1" id="Layer_1" xmlns="http://www.w3.org/2000/svg" xmlns:xlink="http://www.w3.org/1999/xlink" x="0px" y="0px"
	 width="64px" height="64px" viewBox="0 0 64 64" enable-background="new 0 0 64 64" xml:space="preserve">
<path fill-rule="evenodd" clip-rule="evenodd" d="M28,30V18c0-1.105,0.895-2,2-2s2,0.895,2,2v12c0,1.105-0.895,2-2,2
	S28,31.105,28,30L28,30z M44,30V18c0-1.105,0.895-2,2-2s2,0.895,2,2v12c0,1.105-0.895,2-2,2S44,31.105,44,30L44,30z M62.356,41.644
	l-1.782,1.782l-0.007-0.008C60.206,43.777,59.707,44,59.156,44c-1.105,0-2-0.895-2-2c0-0.546,0.221-1.04,0.574-1.398l-0.01-0.01
	L60,38.312V5.001C60,4.448,59.552,4,59.001,4H16.999C16.448,4,16,4.448,16,5.001v38C16,43.552,16.448,44,16.999,44h8
	C26.657,44,28,45.343,28,47.001v1.375l2.744-2.744c1.071-1.009,2.512-1.632,4.1-1.632H49.75c2.347,0,4.25,1.903,4.25,4.25
	c0,1.158-0.471,2.206-1.222,2.972l-3.353,3.353C48.523,55.454,47.295,56,45.937,56H34l-6.577,6.577
	C26.523,63.454,25.295,64,23.937,64H20c-2.208,0-4-1.791-4-4v-2.999C16,56.448,15.552,56,14.999,56h-6C6.237,56,4,53.763,4,51.001
	V18c0-1.105,0.895-2,2-2s2,0.895,2,2v33.001C8,51.552,8.448,52,8.999,52h6C17.763,52,20,54.237,20,57.001v1.998
	C20,59.552,20.448,60,20.999,60h3.313l6.577-6.577C31.789,52.546,33.019,52,34.376,52h11.937l4-4H34l-5.236,5.236
	C28.257,53.707,27.583,54,26.836,54C25.271,54,24,52.729,24,51.164V48h-7.001C14.237,48,12,45.763,12,43.001v-38
	C12,2.237,14.237,0,16.999,0H18h41.001C61.763,0,64,2.237,64,5.001v32.531C64,39.125,63.372,40.569,62.356,41.644L62.356,41.644z
	 M8,12c-1.105,0-2-0.895-2-2s0.895-2,2-2s2,0.895,2,2S9.105,12,8,12L8,12z"/>
</svg>
