<?xml version="1.0" encoding="utf-8"?>
<!-- Generator: Adobe Illustrator 16.0.0, SVG Export Plug-In . SVG Version: 6.00 Build 0)  -->
<!DOCTYPE svg PUBLIC "-//W3C//DTD SVG 1.1//EN" "http://www.w3.org/Graphics/SVG/1.1/DTD/svg11.dtd">
<svg version="1.1" id="Layer_5" xmlns="http://www.w3.org/2000/svg" xmlns:xlink="http://www.w3.org/1999/xlink" x="0px" y="0px"
	 width="512px" height="512px" viewBox="0 0 512 512" enable-background="new 0 0 512 512" xml:space="preserve">
<path fill-rule="evenodd" clip-rule="evenodd" d="M406.832,355.254C335.223,437.988,276.129,480,231.242,480
	c-46.305,0-90.398-74.402-115.102-194.09c-13.039-63.145-23.656-86.176-28.719-94.215c-0.539,0.305-0.969,0.539-1.438,0.773
	l-0.031-0.07c-2.211,1.125-4.664,1.828-7.32,1.828c-8.898,0-16.133-7.211-16.133-16.125c0-5.508,2.781-10.352,7-13.258v-0.023
	c0.039-0.016,0.055-0.031,0.086-0.055c0.039-0.016,0.078-0.047,0.094-0.07c6.422-4.641,13.422-8.266,21.172-8.266
	c22.633,0,39.875,36.719,57.633,122.746c23.859,115.594,62.758,167.578,82.758,167.578c19.641,0,65.34-14.703,150.668-113.266
	c22.766-26.297,97.839-117.243,97.839-192.876c0-36.922-9.542-76.394-63.745-76.394l-3.171-0.052
	c-67.938,0-96.423,44.615-108.063,74.482c0,0.094,0.078,0.07,0,0.234c-0.328,0.875-0.516,1.844-0.516,2.852
	c0,4.414,3.594,7.984,8,7.984c0.406,0,0.812-0.125,1.203-0.18c3.75-0.844,6.875-1.398,8.609-1.398c0.359,0,0.828-0.039,1.406-0.055
	c1.281-0.07,2.953-0.141,4.859-0.141c22.266,0,35.031,12.156,35.031,33.383c0,32.828-46.859,112.77-69.141,130.863
	c-4,3.266-8.297,4.906-12.766,4.906c-19.875,0-36.723-33.969-50.059-100.965c-1.828-9.133-3.367-20.688-5.016-32.922
	c-6.695-49.797-17.297-119.242-50.375-119.242c-32.039,0-82.867,42.445-116.391,75.617l-0.109-0.109
	c-2.945,2.938-7.016,4.75-11.5,4.75c-8.969,0-16.25-7.281-16.25-16.25c0-4.484,1.828-8.539,4.766-11.484
	C68.906,83.359,125.758,32,173.422,32c65.961,0,77.836,88.336,85.695,146.781c1.559,11.695,3.059,22.727,4.668,30.836
	c6.453,32.469,13.75,54.34,19.266,66.34c19.5-25.082,47.266-78.824,47.266-94.629c0-0.055,0-0.094,0-0.141
	c-0.531-0.039-1.219-0.078-1.984-0.078c-1.266,0-2.359,0.078-3.219,0.109c-0.594,0.039-1.141,0.055-1.625,0.07
	c-0.938,0.164-2.391,0.508-4.125,0.914c-0.188,0.039-0.297,0.055-0.484,0.094c-2.766,0.609-5.656,0.93-8.609,0.93
	c-22.109,0-40.016-17.898-40.016-40c0-4.219,0.719-8.258,1.938-12.094C288.395,86.461,329.707,32,412.91,32
	C458.113,32,512,50.711,512,139.852C512,168.086,501.754,245.602,406.832,355.254L406.832,355.254z M16.008,191.984
	c-8.828,0-16.008-7.18-16.008-16c0-8.844,7.18-16.008,16.008-16.008c8.844,0,16,7.164,16,16.008
	C32.008,184.805,24.852,191.984,16.008,191.984L16.008,191.984z"/>
</svg>
