<?xml version="1.0" encoding="utf-8"?>
<!-- Generator: Adobe Illustrator 16.0.0, SVG Export Plug-In . SVG Version: 6.00 Build 0)  -->
<!DOCTYPE svg PUBLIC "-//W3C//DTD SVG 1.1//EN" "http://www.w3.org/Graphics/SVG/1.1/DTD/svg11.dtd">
<svg version="1.1" id="Layer_5" xmlns="http://www.w3.org/2000/svg" xmlns:xlink="http://www.w3.org/1999/xlink" x="0px" y="0px"
	 width="512px" height="512px" viewBox="0 0 512 512" enable-background="new 0 0 512 512" xml:space="preserve">
<path fill-rule="evenodd" clip-rule="evenodd" d="M506.89,360.392c0,0-11.502,39.733-26.863,55.608
	c-19.464,20.844-42.788,25.266-52.805,26.484c-3.282,0.25-6.673,0.461-10.064,0.672l-0.016-0.141
	c-4.47,0.359-9.063-0.984-12.471-4.406c-6.212-6.188-6.212-16.258,0-22.445c2.813-2.82,6.462-4.164,10.135-4.43l-0.016-0.18
	c0.539-0.039,1.109-0.07,1.633-0.109c8.29-1.008,26.355-1.094,42.491-18.319c12.721-13.109,16.846-42.891,16.846-42.891
	s4.235-34.961,4.235-69.921v-48.801c0-34.96-4.235-69.944-4.235-69.944s-4.125-29.777-16.846-42.89
	c-16.136-17.207-34.201-17.297-42.491-18.301c-59.337-4.375-160.438-4.359-160.438-4.359s-101.086-0.016-160.423,4.359
	c-8.291,1.004-26.355,1.094-42.483,18.301c-12.705,13.113-16.847,42.89-16.847,42.89c-0.008,0-4.235,34.984-4.235,69.944v48.801
	c0,34.96,4.235,69.921,4.235,69.921c-0.008,0,4.142,29.781,16.847,42.891c16.127,17.226,37.318,16.687,46.757,18.483
	C133.763,414.922,255.984,416,255.984,416c8.845,0,16.002,7.172,16.002,16c0,8.844-7.157,16-16.002,16
	c-0.266,0-0.523-0.047-0.789-0.062c-10.103-0.109-126.113-1.406-165.283-5.258c-11.392-2.195-38.467-5.836-57.954-26.68
	c-15.362-15.875-26.84-55.608-26.84-55.608S0,326.071,0,283.736v-55.683c0-42.336,5.118-76.671,5.118-76.671
	s11.478-39.503,26.84-55.363c19.487-20.843,42.795-25.507,52.805-26.726C156.422,64,255.891,64,255.891,64h0.219
	c0,0,99.469,0,171.112,5.293c10.017,1.219,33.341,5.883,52.805,26.726c15.361,15.859,26.863,55.363,26.863,55.363
	s5.11,34.335,5.11,76.671v55.683C512,326.071,506.89,360.392,506.89,360.392L506.89,360.392z M320.002,416
	c8.845,0,16.002,7.172,16.002,16c0,8.844-7.157,16-16.002,16S304,440.844,304,432C304,423.172,311.157,416,320.002,416L320.002,416z
	 M248.468,334.142l-0.148,0.078c-2.368,1.438-5.11,2.297-8.072,2.297c-8.697,0-15.752-7.055-15.752-15.75
	c0-6.062,3.461-11.266,8.486-13.905l-0.016-0.016l81.614-43.523c-0.047-0.039-0.18-0.07-0.102-0.109
	c2.673-1.289,4.517-4.035,4.517-7.211c0-2.906-1.609-5.453-3.931-6.836l-95.538-51.054c-1.11-0.555-2.258-0.844-3.532-0.844
	c-4.274,0-7.681,3.355-7.916,7.535l0.016,99.042h-0.125c0,0.055,0.023,0.109,0.023,0.164c0,8.843-7.181,15.999-16.01,15.999
	c-8.845,0-16.002-7.156-16.002-15.999c0-0.023,0-0.023,0-0.039V192.569c0-17.976,14.588-32.558,32.567-32.558
	c6.149,0,11.893,1.703,16.792,4.664c0.195,0.105,0.266,0.07,0.43,0.141l110.376,63.597c2.336,1.363,4.492,2.976,6.485,4.968
	c12.502,12.504,12.502,32.762,0,45.262c-1.837,1.828-3.86,3.359-5.978,4.664l-87.537,50.444
	C248.897,333.892,248.679,334.001,248.468,334.142L248.468,334.142z"/>
</svg>
